<svg xmlns="http://www.w3.org/2000/svg" viewBox="0 0 800 800" width="800" height="800" role="img" aria-label="Sillage Parfum">
<rect width="800" height="800" rx="110" fill="#111111"/>
<path d="M344.24 236.25Q344.24 257.46 354.59 272.35Q364.94 287.25 381.35 298.36Q397.77 309.47 415.95 320.08Q434.63 330.68 451.80 342.55Q468.97 354.42 480.33 370.83Q491.70 387.24 491.70 411.48Q491.70 434.71 480.33 454.15Q468.97 473.60 446.25 485.21Q423.52 496.83 389.18 496.83Q378.07 496.83 367.21 495.31Q356.36 493.80 344.99 490.01Q333.63 486.22 320.50 479.66Q317.98 478.14 317.22 475.87Q316.46 473.60 315.96 470.06L308.38 404.41Q307.88 401.89 310.65 401.63Q313.43 401.38 313.94 403.40Q315.96 418.55 322.02 433.70Q328.08 448.85 338.43 461.48Q348.78 474.10 364.18 481.93Q379.59 489.76 400.29 489.76Q415.95 489.76 430.59 483.95Q445.24 478.14 454.58 465.01Q463.92 451.88 463.92 429.16Q463.92 404.41 453.06 388.00Q442.21 371.59 425.54 359.72Q408.88 347.85 390.19 337.25Q372.52 326.64 355.85 315.03Q339.19 303.41 328.83 287.50Q318.48 271.60 318.48 247.86Q318.48 221.60 331.61 204.18Q344.74 186.76 365.70 178.17Q386.66 169.59 409.38 169.59Q422.51 169.59 436.90 172.36Q451.30 175.14 466.95 181.71Q470.99 183.22 472.76 185.49Q474.53 187.77 474.53 190.29L479.07 243.82Q479.07 245.84 476.29 245.84Q473.52 245.84 473.01 243.82Q472.00 232.71 467.71 220.84Q463.42 208.98 455.08 198.88Q446.75 188.78 433.87 182.46Q421.00 176.15 402.82 176.15Q381.10 176.15 368.22 185.24Q355.35 194.33 349.79 207.97Q344.24 221.60 344.24 236.25Z" fill="#FFFFFF"/>
<g transform="translate(303.72,484.33) scale(1.3280)">
<path d="M0,110 C40,52 105,90 145,32" fill="none" stroke="#C9A227" stroke-width="7.5" stroke-linecap="round"/>
</g>
</svg>
